<svg xmlns="http://www.w3.org/2000/svg" xmlns:xlink="http://www.w3.org/1999/xlink" width="500" zoomAndPan="magnify" viewBox="0 0 375 374.999991" height="500" preserveAspectRatio="xMidYMid meet" version="1.0"><defs><clipPath id="30da5f2ada"><path d="M 51.683594 22 L 325 22 L 325 359 L 51.683594 359 Z M 51.683594 22 " clip-rule="nonzero"/></clipPath></defs><g clip-path="url(#30da5f2ada)"><path fill="#00a8a8" d="M 186.347656 90.339844 C 186.828125 98.050781 174.285156 98.976562 173.765625 91.140625 C 173.242188 83.308594 185.824219 82.464844 186.347656 90.339844 Z M 189.320312 39.757812 C 188.925781 39.757812 188.53125 39.796875 188.144531 39.875 C 187.753906 39.949219 187.378906 40.066406 187.011719 40.214844 C 186.648438 40.367188 186.300781 40.554688 185.96875 40.773438 C 185.640625 40.992188 185.335938 41.242188 185.058594 41.523438 C 184.777344 41.800781 184.527344 42.105469 184.308594 42.4375 C 184.085938 42.765625 183.902344 43.113281 183.75 43.476562 C 183.597656 43.84375 183.484375 44.21875 183.40625 44.609375 C 183.328125 44.996094 183.289062 45.386719 183.289062 45.785156 L 183.289062 53.738281 L 175.492188 53.738281 C 175.097656 53.738281 174.703125 53.777344 174.316406 53.855469 C 173.925781 53.929688 173.550781 54.046875 173.183594 54.195312 C 172.820312 54.347656 172.472656 54.535156 172.140625 54.753906 C 171.8125 54.972656 171.507812 55.222656 171.230469 55.503906 C 170.949219 55.785156 170.699219 56.085938 170.480469 56.417969 C 170.257812 56.746094 170.074219 57.09375 169.921875 57.457031 C 169.769531 57.824219 169.65625 58.199219 169.578125 58.589844 C 169.5 58.976562 169.460938 59.367188 169.460938 59.765625 C 169.460938 60.160156 169.5 60.550781 169.578125 60.941406 C 169.65625 61.328125 169.769531 61.707031 169.921875 62.070312 C 170.074219 62.4375 170.257812 62.785156 170.480469 63.113281 C 170.699219 63.441406 170.949219 63.746094 171.230469 64.027344 C 171.507812 64.304688 171.8125 64.554688 172.140625 64.773438 C 172.472656 64.996094 172.820312 65.179688 173.183594 65.332031 C 173.550781 65.484375 173.925781 65.597656 174.316406 65.675781 C 174.703125 65.753906 175.097656 65.789062 175.492188 65.789062 L 183.289062 65.789062 L 183.289062 73.425781 C 183.289062 73.820312 183.328125 74.210938 183.40625 74.601562 C 183.484375 74.988281 183.597656 75.363281 183.75 75.730469 C 183.902344 76.097656 184.085938 76.441406 184.308594 76.773438 C 184.527344 77.101562 184.777344 77.40625 185.058594 77.683594 C 185.335938 77.964844 185.640625 78.214844 185.96875 78.433594 C 186.300781 78.65625 186.648438 78.839844 187.011719 78.992188 C 187.378906 79.144531 187.753906 79.257812 188.144531 79.335938 C 188.53125 79.410156 188.925781 79.449219 189.320312 79.449219 C 189.714844 79.449219 190.109375 79.410156 190.496094 79.335938 C 190.886719 79.257812 191.261719 79.144531 191.628906 78.992188 C 191.992188 78.839844 192.339844 78.65625 192.671875 78.433594 C 193 78.214844 193.304688 77.964844 193.585938 77.683594 C 193.863281 77.40625 194.113281 77.101562 194.332031 76.773438 C 194.554688 76.441406 194.738281 76.097656 194.890625 75.730469 C 195.042969 75.363281 195.15625 74.988281 195.234375 74.601562 C 195.3125 74.210938 195.351562 73.820312 195.351562 73.425781 L 195.351562 65.789062 L 203.148438 65.789062 C 203.542969 65.789062 203.9375 65.753906 204.324219 65.675781 C 204.714844 65.597656 205.089844 65.484375 205.457031 65.332031 C 205.820312 65.179688 206.167969 64.996094 206.5 64.773438 C 206.828125 64.554688 207.132812 64.304688 207.414062 64.027344 C 207.691406 63.746094 207.941406 63.441406 208.164062 63.113281 C 208.382812 62.785156 208.566406 62.4375 208.71875 62.070312 C 208.871094 61.707031 208.984375 61.328125 209.0625 60.941406 C 209.140625 60.550781 209.179688 60.160156 209.179688 59.765625 C 209.179688 59.367188 209.140625 58.976562 209.0625 58.589844 C 208.984375 58.199219 208.871094 57.824219 208.71875 57.457031 C 208.566406 57.09375 208.382812 56.746094 208.164062 56.417969 C 207.941406 56.085938 207.691406 55.785156 207.414062 55.503906 C 207.132812 55.222656 206.828125 54.972656 206.5 54.753906 C 206.167969 54.535156 205.820312 54.347656 205.457031 54.195312 C 205.089844 54.046875 204.714844 53.929688 204.324219 53.855469 C 203.9375 53.777344 203.542969 53.738281 203.148438 53.738281 L 195.351562 53.738281 L 195.351562 45.703125 C 195.34375 45.3125 195.300781 44.921875 195.21875 44.539062 C 195.140625 44.15625 195.023438 43.78125 194.867188 43.421875 C 194.714844 43.0625 194.527344 42.71875 194.304688 42.394531 C 194.085938 42.070312 193.835938 41.769531 193.554688 41.492188 C 193.277344 41.21875 192.972656 40.972656 192.644531 40.757812 C 192.316406 40.539062 191.972656 40.355469 191.609375 40.207031 C 191.246094 40.058594 190.871094 39.945312 190.488281 39.871094 C 190.101562 39.796875 189.714844 39.757812 189.320312 39.757812 Z M 318.839844 358.628906 L 57.871094 358.628906 C 57.410156 358.625 56.957031 358.570312 56.507812 358.460938 C 56.058594 358.355469 55.625 358.199219 55.210938 357.992188 C 54.800781 357.785156 54.414062 357.535156 54.058594 357.242188 C 53.703125 356.949219 53.382812 356.621094 53.101562 356.253906 C 52.820312 355.886719 52.585938 355.496094 52.394531 355.074219 C 52.203125 354.65625 52.0625 354.21875 51.96875 353.765625 C 51.878906 353.316406 51.835938 352.859375 51.851562 352.398438 C 51.863281 351.933594 51.925781 351.480469 52.042969 351.035156 C 53.609375 345.410156 70.734375 283.460938 72.140625 278.71875 C 74.636719 269.601562 81.308594 265.300781 90.152344 263.453125 L 146.226562 251.722656 C 140.980469 249.320312 135.957031 246.519531 131.152344 243.324219 C 130.839844 243.097656 130.550781 242.84375 130.285156 242.5625 C 130.019531 242.28125 129.785156 241.976562 129.578125 241.648438 C 129.375 241.320312 129.203125 240.976562 129.0625 240.613281 C 128.921875 240.253906 128.816406 239.882812 128.75 239.503906 C 128.679688 239.121094 128.648438 238.738281 128.65625 238.351562 C 128.660156 237.964844 128.703125 237.582031 128.785156 237.203125 C 128.863281 236.824219 128.976562 236.457031 129.128906 236.101562 C 129.277344 235.742188 129.460938 235.40625 129.675781 235.082031 C 129.894531 234.761719 130.136719 234.464844 130.410156 234.191406 C 130.683594 233.917969 130.980469 233.671875 131.300781 233.453125 C 131.621094 233.238281 131.957031 233.050781 132.3125 232.898438 C 132.671875 232.746094 133.039062 232.628906 133.414062 232.550781 C 133.792969 232.46875 134.175781 232.421875 134.5625 232.414062 C 134.949219 232.40625 135.335938 232.4375 135.714844 232.503906 C 136.097656 232.570312 136.46875 232.671875 136.832031 232.808594 C 137.191406 232.945312 137.539062 233.117188 137.867188 233.320312 C 142.023438 236.078125 146.363281 238.503906 150.890625 240.59375 L 153.101562 232.839844 C 149.929688 230.292969 146.980469 227.507812 144.253906 224.492188 C 141.527344 221.472656 139.058594 218.257812 136.84375 214.84375 C 134.632812 211.433594 132.703125 207.867188 131.0625 204.144531 C 129.421875 200.425781 128.082031 196.597656 127.054688 192.664062 C 125.914062 192.160156 124.816406 191.578125 123.761719 190.914062 C 122.703125 190.25 121.699219 189.515625 120.75 188.710938 C 119.800781 187.90625 118.914062 187.035156 118.085938 186.101562 C 117.261719 185.167969 116.507812 184.179688 115.824219 183.136719 C 115.144531 182.09375 114.539062 181.007812 114.011719 179.878906 C 113.484375 178.75 113.042969 177.589844 112.683594 176.394531 C 112.324219 175.203125 112.050781 173.988281 111.863281 172.757812 C 111.679688 171.527344 111.582031 170.285156 111.578125 169.042969 L 111.578125 156.988281 C 111.601562 156.148438 111.703125 155.320312 111.882812 154.5 C 112.066406 153.683594 112.324219 152.886719 112.660156 152.117188 C 112.992188 151.347656 113.398438 150.617188 113.871094 149.925781 C 114.347656 149.230469 114.882812 148.589844 115.480469 148 C 116.078125 147.410156 116.726562 146.882812 117.425781 146.417969 C 118.125 145.953125 118.859375 145.558594 119.632812 145.234375 C 120.410156 144.910156 121.207031 144.660156 122.027344 144.488281 C 122.851562 144.316406 123.679688 144.226562 124.519531 144.214844 C 131.554688 143.851562 138.46875 145.457031 145.503906 145.457031 C 147.03125 145.464844 148.554688 145.410156 150.074219 145.300781 C 151.597656 145.191406 153.109375 145.027344 154.621094 144.800781 C 156.128906 144.578125 157.628906 144.300781 159.117188 143.964844 C 160.601562 143.628906 162.078125 143.238281 163.535156 142.792969 C 164.992188 142.347656 166.433594 141.847656 167.855469 141.292969 C 169.277344 140.738281 170.675781 140.132812 172.050781 139.472656 C 173.425781 138.816406 174.773438 138.105469 176.097656 137.34375 C 177.417969 136.585938 178.710938 135.777344 179.972656 134.917969 C 181.234375 134.0625 182.460938 133.160156 183.65625 132.210938 C 184.847656 131.261719 186.007812 130.269531 187.125 129.234375 C 188.246094 128.199219 189.324219 127.121094 190.363281 126.003906 C 191.402344 124.890625 192.394531 123.734375 193.347656 122.542969 C 194.300781 121.351562 195.207031 120.128906 196.066406 118.867188 C 196.925781 117.609375 197.738281 116.320312 198.5 115 C 199.261719 113.679688 199.976562 112.332031 200.636719 110.957031 C 201.296875 109.585938 201.90625 108.1875 202.464844 106.769531 C 202.660156 106.273438 202.914062 105.8125 203.234375 105.386719 C 203.554688 104.960938 203.921875 104.585938 204.34375 104.261719 C 204.765625 103.9375 205.222656 103.671875 205.714844 103.472656 C 206.210938 103.273438 206.71875 103.140625 207.25 103.078125 C 207.777344 103.015625 208.304688 103.027344 208.832031 103.109375 C 209.355469 103.191406 209.863281 103.339844 210.347656 103.558594 C 210.832031 103.777344 211.277344 104.058594 211.6875 104.398438 C 212.097656 104.738281 212.453125 105.128906 212.757812 105.5625 C 213.886719 107.355469 214.675781 109.28125 215.128906 111.351562 C 217.054688 119.289062 220.351562 126.617188 225.015625 133.324219 C 226.183594 134.980469 227.519531 136.484375 229.023438 137.84375 C 230.523438 139.203125 232.152344 140.382812 233.914062 141.382812 C 235.675781 142.382812 237.527344 143.179688 239.460938 143.769531 C 241.398438 144.363281 243.378906 144.738281 245.398438 144.894531 C 249.980469 144.894531 254.882812 143.691406 258.984375 145.738281 C 264.410156 148.472656 265.65625 155.582031 265.777344 161.808594 C 266.070312 167.464844 265.371094 172.996094 263.6875 178.402344 C 263.261719 179.742188 262.714844 181.03125 262.042969 182.265625 C 261.371094 183.5 260.589844 184.660156 259.691406 185.746094 C 258.796875 186.828125 257.804688 187.820312 256.71875 188.710938 C 255.632812 189.605469 254.472656 190.386719 253.234375 191.058594 C 252.101562 191.484375 251.085938 192.101562 250.179688 192.90625 C 249.441406 193.863281 248.945312 194.9375 248.691406 196.121094 C 247.59375 199.714844 246.238281 203.210938 244.621094 206.605469 C 243.003906 210 241.148438 213.257812 239.050781 216.378906 C 236.953125 219.5 234.636719 222.449219 232.105469 225.226562 C 229.570312 228.003906 226.847656 230.582031 223.929688 232.960938 L 226.785156 243.203125 C 231.621094 240.710938 236.183594 237.789062 240.472656 234.441406 C 244.757812 231.09375 248.699219 227.375 252.289062 223.289062 C 255.878906 219.199219 259.058594 214.816406 261.828125 210.132812 C 264.59375 205.449219 266.902344 200.550781 268.753906 195.4375 C 272.472656 185.214844 274.945312 174.695312 276.167969 163.886719 C 277.390625 153.074219 277.332031 142.273438 275.988281 131.476562 C 275.734375 126.484375 274.902344 121.585938 273.496094 116.785156 C 272.089844 111.988281 270.148438 107.417969 267.667969 103.074219 C 267.035156 102.003906 266.332031 100.976562 265.5625 100 C 264.792969 99.023438 263.960938 98.101562 263.066406 97.238281 C 262.171875 96.375 261.226562 95.570312 260.222656 94.835938 C 259.222656 94.097656 258.175781 93.429688 257.082031 92.832031 C 255.992188 92.238281 254.863281 91.714844 253.703125 91.269531 C 252.539062 90.824219 251.351562 90.460938 250.140625 90.175781 C 248.929688 89.890625 247.707031 89.6875 246.46875 89.566406 C 245.226562 89.445312 243.988281 89.40625 242.742188 89.453125 C 241.683594 91.871094 240.972656 94.390625 240.613281 97.007812 C 240.503906 97.660156 240.308594 98.285156 240.035156 98.886719 C 239.757812 99.488281 239.40625 100.042969 238.984375 100.550781 C 238.558594 101.058594 238.078125 101.503906 237.535156 101.882812 C 236.992188 102.265625 236.410156 102.566406 235.789062 102.792969 C 234.496094 102.976562 233.222656 102.882812 231.972656 102.511719 C 220.691406 99.6875 209.261719 97.757812 197.679688 96.726562 C 197.285156 96.703125 196.894531 96.644531 196.511719 96.542969 C 196.128906 96.445312 195.757812 96.308594 195.398438 96.136719 C 195.042969 95.964844 194.707031 95.757812 194.390625 95.519531 C 194.074219 95.28125 193.78125 95.015625 193.519531 94.71875 C 193.253906 94.421875 193.019531 94.105469 192.820312 93.765625 C 192.617188 93.421875 192.453125 93.0625 192.320312 92.691406 C 192.191406 92.316406 192.097656 91.933594 192.042969 91.539062 C 191.988281 91.148438 191.972656 90.753906 191.992188 90.359375 C 192.015625 89.960938 192.078125 89.574219 192.175781 89.1875 C 192.273438 88.804688 192.410156 88.433594 192.582031 88.078125 C 192.753906 87.722656 192.960938 87.382812 193.199219 87.066406 C 193.4375 86.75 193.707031 86.460938 194 86.195312 C 194.296875 85.933594 194.617188 85.699219 194.957031 85.5 C 195.300781 85.296875 195.65625 85.132812 196.03125 85 C 196.40625 84.871094 196.789062 84.777344 197.183594 84.722656 C 197.574219 84.667969 197.96875 84.652344 198.363281 84.671875 C 209.0625 85.34375 219.578125 87.085938 229.921875 89.894531 L 244.632812 41.6875 C 235.605469 39.183594 226.453125 37.300781 217.171875 36.035156 C 207.890625 34.773438 198.566406 34.140625 189.199219 34.140625 C 179.832031 34.140625 170.507812 34.773438 161.226562 36.035156 C 151.945312 37.300781 142.792969 39.183594 133.765625 41.6875 L 148.597656 89.894531 C 152.257812 88.933594 155.957031 88.089844 159.695312 87.363281 C 160.082031 87.292969 160.476562 87.257812 160.871094 87.257812 C 161.269531 87.261719 161.660156 87.304688 162.050781 87.386719 C 162.4375 87.464844 162.8125 87.585938 163.179688 87.738281 C 163.542969 87.894531 163.890625 88.082031 164.214844 88.304688 C 164.542969 88.527344 164.847656 88.78125 165.125 89.0625 C 165.402344 89.347656 165.648438 89.652344 165.867188 89.984375 C 166.085938 90.316406 166.265625 90.664062 166.414062 91.03125 C 166.5625 91.398438 166.675781 91.777344 166.75 92.164062 C 166.824219 92.554688 166.859375 92.949219 166.855469 93.34375 C 166.851562 93.738281 166.808594 94.132812 166.726562 94.519531 C 166.648438 94.90625 166.53125 95.285156 166.375 95.648438 C 166.21875 96.011719 166.03125 96.359375 165.808594 96.6875 C 165.585938 97.011719 165.332031 97.316406 165.050781 97.59375 C 164.765625 97.871094 164.460938 98.117188 164.128906 98.335938 C 163.796875 98.550781 163.449219 98.734375 163.082031 98.882812 C 162.714844 99.03125 162.335938 99.144531 161.945312 99.214844 C 156.671875 100.269531 151.472656 101.609375 146.347656 103.234375 C 145.96875 103.347656 145.582031 103.421875 145.1875 103.457031 C 144.792969 103.496094 144.398438 103.492188 144.003906 103.453125 C 143.609375 103.414062 143.222656 103.335938 142.84375 103.222656 C 142.460938 103.105469 142.097656 102.957031 141.75 102.769531 C 141.398438 102.582031 141.070312 102.363281 140.761719 102.113281 C 140.453125 101.863281 140.175781 101.585938 139.921875 101.285156 C 139.667969 100.980469 139.445312 100.652344 139.253906 100.304688 C 139.066406 99.957031 138.910156 99.59375 138.792969 99.214844 L 132.078125 76.195312 C 120.703125 85.117188 112.382812 100.058594 107.316406 120.789062 C 98.59375 156.507812 100.644531 185.714844 113.425781 207.691406 C 113.609375 208.03125 113.757812 208.386719 113.871094 208.753906 C 113.984375 209.125 114.0625 209.5 114.105469 209.886719 C 114.148438 210.269531 114.152344 210.652344 114.117188 211.039062 C 114.085938 211.425781 114.019531 211.804688 113.914062 212.175781 C 113.808594 212.546875 113.667969 212.90625 113.492188 213.25 C 113.320312 213.59375 113.113281 213.921875 112.875 214.226562 C 112.640625 214.53125 112.375 214.8125 112.085938 215.066406 C 111.792969 215.320312 111.480469 215.546875 111.148438 215.742188 C 110.8125 215.933594 110.464844 216.097656 110.097656 216.222656 C 109.734375 216.351562 109.359375 216.441406 108.976562 216.5 C 108.59375 216.554688 108.210938 216.574219 107.824219 216.554688 C 107.4375 216.535156 107.054688 216.480469 106.679688 216.390625 C 106.304688 216.296875 105.941406 216.171875 105.589844 216.007812 C 105.238281 215.847656 104.90625 215.652344 104.59375 215.429688 C 104.277344 215.203125 103.988281 214.949219 103.722656 214.667969 C 103.457031 214.386719 103.222656 214.082031 103.015625 213.757812 C 88.625 189.007812 86.132812 156.789062 95.617188 117.9375 C 101.847656 92.425781 112.902344 74.429688 128.421875 64.144531 L 120.78125 39.316406 C 120.675781 38.9375 120.605469 38.550781 120.574219 38.160156 C 120.539062 37.765625 120.546875 37.375 120.589844 36.984375 C 120.628906 36.59375 120.710938 36.210938 120.824219 35.835938 C 120.941406 35.457031 121.09375 35.097656 121.277344 34.75 C 121.464844 34.402344 121.679688 34.078125 121.929688 33.773438 C 122.179688 33.464844 122.453125 33.1875 122.753906 32.933594 C 123.054688 32.683594 123.378906 32.460938 123.722656 32.269531 C 124.070312 32.082031 124.429688 31.925781 124.800781 31.804688 C 135.289062 28.566406 145.960938 26.128906 156.816406 24.492188 C 167.667969 22.855469 178.585938 22.035156 189.5625 22.035156 C 200.539062 22.035156 211.453125 22.855469 222.308594 24.492188 C 233.160156 26.128906 243.832031 28.566406 254.320312 31.804688 C 254.695312 31.925781 255.050781 32.085938 255.394531 32.277344 C 255.738281 32.46875 256.058594 32.691406 256.359375 32.941406 C 256.660156 33.195312 256.933594 33.476562 257.183594 33.78125 C 257.429688 34.085938 257.644531 34.410156 257.832031 34.757812 C 258.015625 35.105469 258.167969 35.464844 258.285156 35.839844 C 258.398438 36.214844 258.480469 36.597656 258.523438 36.988281 C 258.566406 37.378906 258.574219 37.769531 258.542969 38.160156 C 258.511719 38.550781 258.445312 38.9375 258.339844 39.316406 L 246.644531 77.363281 C 249.273438 77.570312 251.859375 78.027344 254.398438 78.738281 C 256.941406 79.445312 259.390625 80.394531 261.746094 81.578125 C 264.101562 82.761719 266.324219 84.164062 268.410156 85.777344 C 270.492188 87.394531 272.402344 89.195312 274.136719 91.183594 C 275.847656 93.300781 277.363281 95.550781 278.679688 97.929688 C 286.238281 110.546875 288.488281 125.851562 288.851562 140.316406 C 289.1875 149.824219 288.742188 159.300781 287.523438 168.738281 C 286.300781 178.175781 284.320312 187.449219 281.574219 196.5625 C 278.71875 205.117188 274.699219 213.082031 269.515625 220.464844 C 265.492188 226.878906 260.679688 232.636719 255.085938 237.742188 C 248.519531 243.125 241.617188 248.039062 234.382812 252.484375 L 286.640625 263.453125 C 287.671875 263.542969 288.691406 263.710938 289.695312 263.953125 C 290.699219 264.199219 291.683594 264.519531 292.640625 264.914062 C 293.59375 265.308594 294.515625 265.769531 295.402344 266.304688 C 296.289062 266.839844 297.128906 267.4375 297.925781 268.101562 C 298.71875 268.761719 299.460938 269.480469 300.144531 270.257812 C 300.832031 271.03125 301.453125 271.855469 302.011719 272.722656 C 302.574219 273.59375 303.0625 274.5 303.484375 275.445312 C 303.90625 276.390625 304.253906 277.359375 304.527344 278.359375 C 308.871094 293.984375 322.214844 342.398438 324.628906 350.953125 C 324.75 351.402344 324.820312 351.859375 324.839844 352.320312 C 324.859375 352.785156 324.824219 353.246094 324.738281 353.699219 C 324.648438 354.15625 324.511719 354.597656 324.324219 355.019531 C 324.136719 355.445312 323.902344 355.84375 323.621094 356.214844 C 323.34375 356.585938 323.023438 356.917969 322.667969 357.214844 C 322.3125 357.515625 321.925781 357.765625 321.511719 357.976562 C 321.097656 358.1875 320.664062 358.34375 320.210938 358.457031 C 319.761719 358.566406 319.304688 358.621094 318.839844 358.628906 Z M 187.792969 233.402344 L 188.113281 233.402344 C 211.308594 233.402344 232.011719 214.238281 238.601562 186.679688 C 238.734375 186.152344 238.929688 185.65625 239.191406 185.183594 C 239.457031 184.714844 239.777344 184.285156 240.15625 183.902344 C 240.53125 183.515625 240.957031 183.1875 241.421875 182.914062 C 241.886719 182.644531 242.382812 182.4375 242.90625 182.300781 C 243.640625 182.109375 244.351562 181.859375 245.046875 181.550781 C 245.738281 181.242188 246.402344 180.878906 247.039062 180.460938 C 247.671875 180.042969 248.265625 179.578125 248.824219 179.0625 C 249.382812 178.546875 249.890625 177.992188 250.359375 177.390625 C 250.824219 176.792969 251.238281 176.160156 251.597656 175.492188 C 251.960938 174.824219 252.265625 174.132812 252.515625 173.417969 C 252.761719 172.699219 252.949219 171.96875 253.078125 171.21875 C 253.207031 170.472656 253.273438 169.71875 253.277344 168.960938 L 253.277344 156.910156 C 253.269531 156.605469 253.136719 156.378906 252.875 156.226562 C 249.382812 157.089844 245.847656 157.347656 242.265625 156.996094 C 238.683594 156.644531 235.265625 155.707031 232.011719 154.175781 C 229.027344 152.652344 226.222656 150.851562 223.589844 148.78125 C 220.957031 146.710938 218.546875 144.40625 216.363281 141.871094 C 214.179688 139.332031 212.257812 136.605469 210.601562 133.695312 C 208.949219 130.785156 207.589844 127.742188 206.523438 124.566406 C 204.867188 127.097656 203.0625 129.511719 201.105469 131.816406 C 199.148438 134.121094 197.054688 136.292969 194.828125 138.335938 C 192.597656 140.378906 190.253906 142.277344 187.789062 144.03125 C 185.324219 145.78125 182.761719 147.375 180.097656 148.804688 C 177.4375 150.238281 174.695312 151.5 171.875 152.59375 C 169.054688 153.683594 166.179688 154.597656 163.246094 155.332031 C 160.3125 156.066406 157.34375 156.613281 154.34375 156.980469 C 151.339844 157.34375 148.328125 157.519531 145.304688 157.511719 C 140.839844 157.511719 126.652344 156.386719 124.117188 156.183594 C 123.921875 156.214844 123.757812 156.304688 123.625 156.460938 C 123.496094 156.613281 123.433594 156.789062 123.433594 156.988281 L 123.433594 169.042969 C 123.441406 169.789062 123.507812 170.53125 123.632812 171.265625 C 123.761719 172.003906 123.945312 172.722656 124.1875 173.429688 C 124.429688 174.136719 124.726562 174.820312 125.078125 175.480469 C 125.433594 176.136719 125.835938 176.765625 126.289062 177.359375 C 126.742188 177.953125 127.242188 178.503906 127.785156 179.019531 C 128.328125 179.53125 128.90625 180 129.527344 180.417969 C 130.144531 180.839844 130.792969 181.207031 131.46875 181.519531 C 132.148438 181.835938 132.847656 182.097656 133.566406 182.300781 C 134.082031 182.445312 134.570312 182.65625 135.03125 182.9375 C 135.492188 183.214844 135.90625 183.546875 136.277344 183.933594 C 136.648438 184.324219 136.960938 184.753906 137.21875 185.226562 C 137.472656 185.699219 137.664062 186.195312 137.785156 186.71875 C 144.136719 213.996094 164.71875 233.242188 187.792969 233.402344 Z M 163.675781 239.589844 L 158.730469 256.945312 L 188.355469 314.878906 L 218.0625 256.984375 L 213.117188 239.429688 C 209.238281 241.40625 205.183594 242.910156 200.953125 243.933594 C 196.722656 244.957031 192.429688 245.480469 188.074219 245.496094 L 187.671875 245.496094 C 183.480469 245.4375 179.347656 244.910156 175.277344 243.914062 C 171.203125 242.917969 167.296875 241.476562 163.554688 239.589844 Z M 310.921875 346.574219 L 292.507812 279.882812 C 290.859375 276.230469 286.640625 275.867188 283.183594 275.023438 L 228.230469 263.574219 L 193.703125 330.945312 C 193.445312 331.433594 193.125 331.878906 192.746094 332.28125 C 192.367188 332.679688 191.941406 333.023438 191.46875 333.308594 C 190.996094 333.59375 190.492188 333.808594 189.960938 333.957031 C 189.429688 334.105469 188.886719 334.179688 188.335938 334.179688 C 187.785156 334.179688 187.242188 334.105469 186.710938 333.957031 C 186.179688 333.808594 185.675781 333.59375 185.203125 333.308594 C 184.730469 333.023438 184.304688 332.679688 183.925781 332.28125 C 183.546875 331.878906 183.226562 331.433594 182.96875 330.945312 L 148.480469 263.574219 C 144.980469 264.09375 141.523438 264.816406 138.109375 265.742188 C 122.753906 268.957031 107.394531 272.492188 91.960938 275.34375 C 89.308594 275.828125 85.046875 276.792969 84.203125 279.882812 L 65.792969 346.574219 Z M 119.617188 232.035156 C 120.207031 232.050781 120.789062 231.980469 121.355469 231.820312 C 121.925781 231.664062 122.460938 231.425781 122.960938 231.109375 C 123.457031 230.792969 123.898438 230.410156 124.285156 229.960938 C 124.667969 229.515625 124.980469 229.019531 125.21875 228.480469 C 125.453125 227.9375 125.609375 227.375 125.675781 226.789062 C 125.746094 226.199219 125.726562 225.617188 125.621094 225.035156 C 125.519531 224.453125 125.332031 223.902344 125.058594 223.375 C 124.789062 222.851562 124.449219 222.375 124.039062 221.953125 L 123.71875 221.589844 C 123.4375 221.3125 123.132812 221.0625 122.804688 220.84375 C 122.472656 220.621094 122.128906 220.4375 121.761719 220.285156 C 121.394531 220.136719 121.019531 220.019531 120.632812 219.945312 C 120.242188 219.867188 119.851562 219.828125 119.457031 219.828125 C 119.058594 219.828125 118.667969 219.867188 118.28125 219.945312 C 117.890625 220.019531 117.515625 220.132812 117.148438 220.285156 C 116.785156 220.4375 116.4375 220.621094 116.109375 220.84375 C 115.777344 221.0625 115.476562 221.3125 115.195312 221.589844 C 114.8125 222.039062 114.5 222.53125 114.257812 223.066406 C 114.011719 223.601562 113.84375 224.160156 113.753906 224.738281 C 113.667969 225.320312 113.660156 225.902344 113.730469 226.488281 C 113.804688 227.070312 113.953125 227.632812 114.183594 228.175781 C 114.414062 228.71875 114.710938 229.21875 115.082031 229.675781 C 115.449219 230.132812 115.875 230.535156 116.351562 230.875 C 116.832031 231.214844 117.351562 231.484375 117.902344 231.683594 C 118.457031 231.878906 119.03125 231.996094 119.617188 232.035156 Z M 119.617188 232.035156 " fill-opacity="1" fill-rule="nonzero"/></g></svg>