<svg xmlns="http://www.w3.org/2000/svg" xmlns:xlink="http://www.w3.org/1999/xlink" width="500" zoomAndPan="magnify" viewBox="0 0 375 374.999991" height="500" preserveAspectRatio="xMidYMid meet" version="1.0"><defs><clipPath id="2c5996502e"><path d="M 90 22.679688 L 149 22.679688 L 149 61 L 90 61 Z M 90 22.679688 " clip-rule="nonzero"/></clipPath><clipPath id="9609da19c2"><path d="M 55.027344 105 L 153 105 L 153 198 L 55.027344 198 Z M 55.027344 105 " clip-rule="nonzero"/></clipPath><clipPath id="09b55b5b32"><path d="M 303 168 L 319.777344 168 L 319.777344 352.679688 L 303 352.679688 Z M 303 168 " clip-rule="nonzero"/></clipPath><clipPath id="e189d9eb0f"><path d="M 226 327 L 262 327 L 262 352.679688 L 226 352.679688 Z M 226 327 " clip-rule="nonzero"/></clipPath><clipPath id="fa29fb9ba3"><path d="M 119 98 L 303 98 L 303 352.679688 L 119 352.679688 Z M 119 98 " clip-rule="nonzero"/></clipPath></defs><g clip-path="url(#2c5996502e)"><path fill="#00a8a8" d="M 119.519531 39.964844 C 121.890625 39.964844 124.273438 40.238281 126.605469 40.785156 C 137.238281 43.265625 145.320312 50.96875 148.804688 60.550781 C 148.15625 50.820312 146.195312 32.644531 140.453125 28.460938 C 132.519531 22.679688 119.539062 22.679688 119.539062 22.679688 C 119.539062 22.679688 106.554688 22.679688 98.621094 28.460938 C 92.867188 32.648438 90.910156 50.867188 90.265625 60.589844 C 94.660156 48.289062 106.207031 39.964844 119.519531 39.964844 Z M 119.519531 39.964844 " fill-opacity="1" fill-rule="nonzero"/></g><path fill="#00a8a8" d="M 90.191406 337.386719 C 90.191406 344.882812 96.253906 350.957031 103.734375 350.957031 C 111.214844 350.957031 117.28125 344.882812 117.28125 337.386719 L 117.28125 274.257812 C 106.363281 274.195312 97.445312 273.6875 90.191406 272.898438 Z M 90.191406 337.386719 " fill-opacity="1" fill-rule="nonzero"/><path fill="#00a8a8" d="M 121.792969 337.386719 C 121.792969 344.882812 127.855469 350.957031 135.339844 350.957031 C 142.816406 350.957031 148.882812 344.882812 148.882812 337.386719 L 148.882812 272.898438 C 141.625 273.6875 132.710938 274.195312 121.792969 274.261719 Z M 121.792969 337.386719 " fill-opacity="1" fill-rule="nonzero"/><path fill="#00a8a8" d="M 90.191406 270.164062 C 97.347656 270.957031 106.253906 271.476562 117.28125 271.542969 C 118.035156 271.546875 118.761719 271.558594 119.539062 271.558594 C 120.3125 271.558594 121.039062 271.546875 121.792969 271.542969 C 132.820312 271.476562 141.726562 270.957031 148.882812 270.164062 C 157.019531 269.265625 162.925781 268.027344 167.203125 266.742188 C 168.285156 249.242188 169.699219 235.433594 171.089844 224.808594 L 169.222656 215.429688 L 157.257812 155.304688 C 149.414062 169.621094 144.78125 186.871094 143.457031 206.847656 C 143.242188 210.199219 141.800781 213.199219 139.605469 215.441406 C 137.136719 217.96875 133.714844 219.539062 129.949219 219.539062 C 129.660156 219.539062 129.367188 219.527344 129.078125 219.511719 C 125.609375 219.285156 122.542969 217.761719 120.289062 215.457031 C 117.683594 212.792969 116.167969 209.089844 116.425781 205.09375 C 116.585938 202.5625 116.796875 200.09375 117.046875 197.675781 C 103.835938 194.988281 92.847656 191.707031 83.675781 187.722656 C 80.957031 186.535156 78.453125 185.289062 76.105469 184 L 69.839844 215.480469 L 60.84375 260.683594 C 60.84375 260.679688 63.652344 267.234375 90.191406 270.164062 Z M 148.882812 232.984375 L 141.75 235.371094 L 140.128906 229.722656 L 147.886719 227.816406 L 163.054688 224.097656 L 163.957031 227.9375 Z M 97.324219 235.371094 L 90.191406 232.984375 L 75.113281 227.9375 L 76.015625 224.09375 L 91.183594 227.816406 L 98.945312 229.71875 Z M 97.324219 235.371094 " fill-opacity="1" fill-rule="nonzero"/><path fill="#00a8a8" d="M 174.003906 185.835938 L 174.003906 141.578125 C 172.992188 139.910156 171.9375 138.277344 170.851562 136.671875 C 170.328125 137.214844 169.800781 137.753906 169.292969 138.3125 C 165.625 142.355469 162.34375 146.773438 159.441406 151.53125 C 161.988281 155.816406 164.347656 160.460938 166.496094 165.371094 C 169.351562 171.867188 171.832031 178.789062 174.003906 185.835938 Z M 174.003906 185.835938 " fill-opacity="1" fill-rule="nonzero"/><g clip-path="url(#9609da19c2)"><path fill="#00a8a8" d="M 128.113281 123.625 C 123.828125 123.398438 119.988281 116.613281 119.988281 116.613281 C 119.988281 116.613281 122.539062 114.722656 125.214844 111.722656 C 126.53125 110.242188 127.867188 108.492188 128.957031 106.554688 C 125.914062 106.019531 122.769531 105.734375 119.539062 105.742188 C 116.410156 105.757812 113.246094 106.027344 110.085938 106.503906 C 111.179688 108.460938 112.527344 110.230469 113.859375 111.722656 C 116.535156 114.726562 119.085938 116.613281 119.085938 116.613281 C 119.085938 116.613281 115.25 123.398438 110.960938 123.625 C 108.253906 123.769531 103.929688 117.695312 101.105469 113.195312 C 100.015625 111.457031 99.148438 109.953125 98.6875 109.136719 C 91.46875 111.382812 84.496094 114.644531 78.242188 118.632812 C 72.152344 122.558594 66.75 127.203125 62.628906 132.675781 C 58.539062 138.113281 55.625 144.609375 55.613281 151.84375 C 55.585938 157.351562 57.445312 163.015625 60.953125 167.890625 C 60.960938 167.902344 60.964844 167.914062 60.972656 167.925781 C 61.949219 169.28125 63.070312 170.574219 64.265625 171.832031 C 67.554688 175.285156 71.65625 178.390625 76.660156 181.210938 C 79.144531 182.613281 81.828125 183.953125 84.75 185.230469 C 93.417969 188.996094 104.136719 192.257812 117.347656 194.964844 C 118.226562 195.144531 119.117188 195.324219 120.015625 195.5 C 122.742188 196.027344 125.558594 196.539062 128.496094 197.023438 C 128.980469 197.105469 129.464844 197.144531 129.9375 197.144531 C 134.167969 197.144531 137.902344 194.078125 138.613281 189.757812 C 139.402344 184.949219 136.152344 180.414062 131.359375 179.621094 C 128.441406 179.140625 125.660156 178.632812 122.992188 178.109375 C 122.089844 177.933594 121.203125 177.753906 120.332031 177.574219 C 108.273438 175.066406 98.835938 172.136719 91.761719 169.054688 C 86.84375 166.925781 83.113281 164.726562 80.355469 162.640625 C 77.992188 160.855469 76.339844 159.15625 75.300781 157.667969 C 75.292969 157.664062 75.289062 157.65625 75.285156 157.652344 C 75.25 157.601562 75.210938 157.558594 75.171875 157.507812 L 75.183594 157.492188 C 73.664062 155.265625 73.25 153.597656 73.222656 151.847656 C 73.207031 149.546875 74.191406 146.617188 76.695312 143.277344 C 78.820312 140.410156 82.050781 137.449219 85.910156 134.742188 L 80.949219 159.652344 C 83.332031 161.617188 87.0625 164.066406 92.835938 166.5625 C 100.261719 169.800781 109.691406 172.605469 120.953125 174.933594 C 125.707031 155.648438 133.292969 141.050781 140.957031 130.316406 C 143.777344 126.367188 146.605469 122.933594 149.308594 119.992188 C 149.5625 119.710938 149.816406 119.457031 150.070312 119.1875 C 150.835938 118.363281 151.597656 117.5625 152.355469 116.796875 C 152.222656 116.695312 152.09375 116.585938 151.960938 116.488281 C 148.289062 113.796875 144.289062 111.527344 140.023438 109.773438 C 139.53125 110.628906 138.820312 111.839844 137.96875 113.195312 C 135.148438 117.691406 130.824219 123.765625 128.113281 123.625 Z M 128.113281 123.625 " fill-opacity="1" fill-rule="nonzero"/></g><path fill="#00a8a8" d="M 113.089844 98.921875 C 128.382812 102.488281 143.671875 92.957031 147.234375 77.632812 C 148.050781 74.121094 148.148438 70.613281 147.679688 67.242188 C 146.09375 55.910156 137.773438 46.175781 125.988281 43.429688 C 110.691406 39.859375 95.402344 49.390625 91.839844 64.710938 C 91.644531 65.554688 91.503906 66.398438 91.386719 67.238281 C 89.355469 81.6875 98.632812 95.546875 113.089844 98.921875 Z M 113.089844 98.921875 " fill-opacity="1" fill-rule="nonzero"/><g clip-path="url(#09b55b5b32)"><path fill="#00a8a8" d="M 303.976562 185.65625 C 304.992188 187.496094 305.578125 189.613281 305.582031 191.871094 L 305.582031 345.878906 C 305.582031 349.621094 308.613281 352.664062 312.351562 352.664062 C 316.09375 352.664062 319.125 349.621094 319.125 345.878906 L 319.125 191.871094 C 319.121094 181.722656 313.417969 172.921875 305.050781 168.480469 C 305.375 171.824219 305.609375 175.234375 305.691406 178.761719 C 305.75 181.261719 305.113281 183.613281 303.976562 185.65625 Z M 303.976562 185.65625 " fill-opacity="1" fill-rule="nonzero"/></g><path fill="#00a8a8" d="M 277.996094 169.898438 C 270.941406 174.652344 266.304688 182.714844 266.300781 191.871094 C 266.300781 195.617188 269.332031 198.65625 273.074219 198.65625 C 276.8125 198.65625 279.847656 195.617188 279.847656 191.871094 L 279.84375 191.871094 C 279.847656 190.011719 280.25 188.253906 280.957031 186.660156 C 279.53125 184.570312 278.667969 182.074219 278.605469 179.394531 C 278.53125 176.101562 278.324219 172.933594 277.996094 169.898438 Z M 277.996094 169.898438 " fill-opacity="1" fill-rule="nonzero"/><path fill="#00a8a8" d="M 226.449219 308.96875 L 261.816406 318.660156 C 261.714844 309.886719 261.53125 301.660156 261.277344 293.957031 L 226.445312 308.777344 C 226.445312 308.84375 226.449219 308.90625 226.449219 308.96875 Z M 226.449219 308.96875 " fill-opacity="1" fill-rule="nonzero"/><path fill="#00a8a8" d="M 225.941406 290.914062 C 226.101562 295.21875 226.234375 299.71875 226.347656 304.398438 L 260.320312 289.941406 Z M 225.941406 290.914062 " fill-opacity="1" fill-rule="nonzero"/><path fill="#00a8a8" d="M 261.863281 322.890625 L 226.527344 313.210938 C 226.605469 317.886719 226.65625 322.734375 226.683594 327.769531 L 261.863281 323.164062 C 261.863281 323.074219 261.863281 322.980469 261.863281 322.890625 Z M 261.863281 322.890625 " fill-opacity="1" fill-rule="nonzero"/><g clip-path="url(#e189d9eb0f)"><path fill="#00a8a8" d="M 226.699219 334.441406 C 226.699219 344.183594 234.582031 352.082031 244.304688 352.082031 C 254.03125 352.082031 261.914062 344.183594 261.914062 334.441406 C 261.914062 332.011719 261.90625 329.625 261.894531 327.269531 L 226.691406 331.878906 C 226.695312 332.734375 226.699219 333.574219 226.699219 334.441406 Z M 226.699219 334.441406 " fill-opacity="1" fill-rule="nonzero"/></g><g clip-path="url(#fa29fb9ba3)"><path fill="#00a8a8" d="M 123.621094 175.46875 C 126.257812 175.984375 128.980469 176.476562 131.796875 176.941406 C 134.832031 177.441406 137.488281 179.097656 139.28125 181.601562 C 141.074219 184.105469 141.785156 187.15625 141.285156 190.195312 C 140.363281 195.792969 135.59375 199.855469 129.9375 199.855469 C 129.320312 199.855469 128.6875 199.804688 128.0625 199.703125 C 125.183594 199.226562 122.410156 198.726562 119.710938 198.203125 C 119.476562 200.511719 119.28125 202.863281 119.128906 205.265625 C 118.847656 209.589844 121.140625 213.476562 124.6875 215.449219 C 126.046875 216.207031 127.582031 216.691406 129.238281 216.800781 C 129.476562 216.816406 129.710938 216.824219 129.949219 216.824219 C 131.84375 216.824219 133.636719 216.320312 135.203125 215.445312 C 138.308594 213.710938 140.507812 210.488281 140.753906 206.667969 C 142.394531 181.867188 148.828125 164.066406 156.441406 151.210938 C 156.90625 150.433594 157.371094 149.679688 157.839844 148.9375 C 160.914062 144.070312 164.136719 139.953125 167.289062 136.476562 C 167.957031 135.75 168.617188 135.066406 169.277344 134.394531 C 171.863281 131.753906 174.382812 129.527344 176.710938 127.691406 L 176.710938 206.351562 C 176.710938 206.414062 176.71875 206.472656 176.71875 206.53125 C 175.84375 211.082031 174.839844 217.082031 173.832031 224.691406 C 173.476562 227.355469 173.125 230.210938 172.777344 233.277344 C 171.753906 242.277344 170.773438 253.0625 169.96875 265.820312 C 169.90625 266.792969 169.847656 267.777344 169.785156 268.769531 C 168.722656 286.71875 168.007812 308.421875 168.003906 334.4375 C 168.003906 344.179688 175.886719 352.078125 185.613281 352.078125 C 195.339844 352.078125 203.21875 344.179688 203.21875 334.4375 C 203.21875 285.199219 205.84375 252.335938 208.386719 232.074219 C 209.144531 226.066406 209.886719 221.191406 210.558594 217.300781 L 219.367188 217.300781 C 221.464844 229.53125 224.332031 251.691406 225.78125 286.84375 L 260.980469 285.847656 C 259.304688 244.582031 255.710938 219.621094 253.203125 206.535156 C 253.203125 206.472656 253.210938 206.414062 253.210938 206.351562 L 253.210938 123.945312 C 255.621094 125.0625 258.171875 126.507812 260.675781 128.40625 C 265.507812 132.050781 270.316406 137.234375 274.191406 145.226562 C 277.046875 151.15625 279.382812 158.707031 280.550781 168.398438 C 280.957031 171.773438 281.222656 175.40625 281.3125 179.328125 C 281.351562 181.027344 281.789062 182.617188 282.519531 184.035156 C 284.324219 187.542969 287.964844 189.933594 292.144531 189.933594 C 292.230469 189.933594 292.3125 189.929688 292.402344 189.929688 C 296.847656 189.824219 300.601562 187.050781 302.179688 183.171875 C 302.726562 181.832031 303.015625 180.363281 302.980469 178.824219 C 302.886719 174.761719 302.625 170.898438 302.21875 167.207031 C 300.8125 154.269531 297.601562 143.523438 293.171875 134.707031 C 284.660156 117.648438 271.6875 108.300781 261.140625 103.710938 C 255.027344 101.027344 249.707031 99.785156 246.113281 99.207031 C 244.917969 98.757812 243.632812 98.5 242.28125 98.5 L 240.9375 98.5 C 236.210938 103.929688 229.929688 107.734375 222.785156 109.402344 C 220.203125 110.003906 217.558594 110.3125 214.929688 110.3125 C 204.648438 110.3125 195.320312 105.824219 188.949219 98.5 L 187.636719 98.5 C 186.261719 98.5 184.953125 98.761719 183.746094 99.226562 C 182.847656 99.324219 181.949219 99.527344 181.066406 99.863281 L 181.0625 99.859375 C 180.066406 100.25 167.945312 105.019531 154.511719 118.476562 C 153.445312 119.542969 152.371094 120.648438 151.296875 121.824219 C 151.101562 122.035156 150.914062 122.25 150.71875 122.464844 C 148.171875 125.289062 145.621094 128.429688 143.132812 131.917969 C 135.324219 142.882812 128.140625 157.226562 123.621094 175.46875 Z M 123.621094 175.46875 " fill-opacity="1" fill-rule="nonzero"/></g><path fill="#00a8a8" d="M 192.714844 98.5 C 200.226562 105.84375 211.195312 109.324219 222.175781 106.761719 C 228.066406 105.386719 233.191406 102.453125 237.21875 98.5 C 238.089844 97.644531 238.902344 96.734375 239.667969 95.785156 C 245.632812 88.40625 248.265625 78.453125 245.945312 68.488281 C 241.964844 51.347656 224.859375 40.683594 207.746094 44.675781 C 190.632812 48.667969 179.988281 65.800781 183.976562 82.945312 C 185.105469 87.808594 187.292969 92.152344 190.238281 95.785156 C 191.011719 96.742188 191.839844 97.644531 192.714844 98.5 Z M 192.714844 98.5 " fill-opacity="1" fill-rule="nonzero"/></svg>