<svg xmlns="http://www.w3.org/2000/svg" xmlns:xlink="http://www.w3.org/1999/xlink" width="500" zoomAndPan="magnify" viewBox="0 0 375 374.999991" height="500" preserveAspectRatio="xMidYMid meet" version="1.0"><defs><clipPath id="f4e491ee12"><path d="M 106.667969 89 L 268.667969 89 L 268.667969 288 L 106.667969 288 Z M 106.667969 89 " clip-rule="nonzero"/></clipPath></defs><rect x="-37.5" width="450" fill="#ffffff" y="-37.499999" height="449.999989" fill-opacity="1"/><rect x="-37.5" width="450" fill="#ffffff" y="-37.499999" height="449.999989" fill-opacity="1"/><rect x="-37.5" width="450" fill="#ffffff" y="-37.499999" height="449.999989" fill-opacity="1"/><g clip-path="url(#f4e491ee12)"><path fill="#00a8a8" d="M 186.359375 129.292969 C 186.644531 133.84375 179.222656 134.386719 178.914062 129.765625 C 178.605469 125.144531 186.050781 124.648438 186.359375 129.292969 Z M 188.121094 99.453125 C 187.644531 99.453125 187.191406 99.542969 186.753906 99.722656 C 186.316406 99.90625 185.929688 100.160156 185.597656 100.496094 C 185.261719 100.828125 185.003906 101.214844 184.824219 101.648438 C 184.640625 102.085938 184.550781 102.539062 184.550781 103.007812 L 184.550781 107.703125 L 179.9375 107.703125 C 179.460938 107.703125 179.007812 107.792969 178.570312 107.972656 C 178.132812 108.152344 177.746094 108.410156 177.414062 108.742188 C 177.078125 109.078125 176.820312 109.460938 176.640625 109.894531 C 176.457031 110.332031 176.367188 110.785156 176.367188 111.257812 C 176.367188 111.726562 176.457031 112.179688 176.640625 112.617188 C 176.820312 113.050781 177.078125 113.4375 177.414062 113.769531 C 177.746094 114.105469 178.132812 114.359375 178.570312 114.542969 C 179.007812 114.722656 179.460938 114.8125 179.9375 114.8125 L 184.550781 114.8125 L 184.550781 119.316406 C 184.550781 119.785156 184.640625 120.238281 184.824219 120.675781 C 185.003906 121.109375 185.261719 121.496094 185.597656 121.828125 C 185.929688 122.160156 186.316406 122.417969 186.753906 122.597656 C 187.191406 122.78125 187.644531 122.871094 188.117188 122.871094 C 188.59375 122.871094 189.046875 122.78125 189.484375 122.597656 C 189.921875 122.417969 190.308594 122.160156 190.640625 121.828125 C 190.976562 121.496094 191.234375 121.109375 191.414062 120.675781 C 191.597656 120.238281 191.6875 119.785156 191.6875 119.316406 L 191.6875 114.8125 L 196.300781 114.8125 C 196.777344 114.8125 197.230469 114.722656 197.667969 114.542969 C 198.105469 114.359375 198.492188 114.105469 198.824219 113.769531 C 199.160156 113.4375 199.417969 113.050781 199.597656 112.617188 C 199.78125 112.179688 199.871094 111.726562 199.871094 111.257812 C 199.871094 110.785156 199.78125 110.332031 199.597656 109.894531 C 199.417969 109.460938 199.160156 109.078125 198.824219 108.742188 C 198.492188 108.410156 198.105469 108.152344 197.667969 107.972656 C 197.230469 107.792969 196.777344 107.703125 196.300781 107.703125 L 191.6875 107.703125 L 191.6875 102.960938 C 191.679688 102.496094 191.585938 102.046875 191.402344 101.617188 C 191.21875 101.1875 190.960938 100.808594 190.625 100.476562 C 190.292969 100.148438 189.90625 99.898438 189.472656 99.71875 C 189.039062 99.542969 188.589844 99.453125 188.121094 99.453125 Z M 264.765625 287.5625 L 110.332031 287.5625 C 110.058594 287.558594 109.789062 287.527344 109.523438 287.464844 C 109.257812 287.398438 109 287.308594 108.757812 287.1875 C 108.511719 287.066406 108.285156 286.917969 108.074219 286.746094 C 107.863281 286.570312 107.675781 286.378906 107.507812 286.160156 C 107.339844 285.945312 107.203125 285.714844 107.089844 285.464844 C 106.976562 285.21875 106.890625 284.960938 106.835938 284.695312 C 106.78125 284.425781 106.757812 284.15625 106.765625 283.886719 C 106.773438 283.613281 106.8125 283.347656 106.882812 283.082031 C 107.808594 279.765625 117.941406 243.21875 118.777344 240.421875 C 120.25 235.042969 124.199219 232.507812 129.433594 231.417969 L 162.617188 224.496094 C 159.511719 223.078125 156.539062 221.425781 153.695312 219.542969 C 153.324219 219.273438 153.011719 218.941406 152.765625 218.550781 C 152.519531 218.164062 152.355469 217.742188 152.273438 217.289062 C 152.191406 216.832031 152.199219 216.382812 152.292969 215.929688 C 152.390625 215.480469 152.566406 215.0625 152.824219 214.679688 C 153.082031 214.296875 153.402344 213.976562 153.785156 213.71875 C 154.167969 213.460938 154.582031 213.28125 155.035156 213.1875 C 155.488281 213.089844 155.941406 213.078125 156.398438 213.160156 C 156.851562 213.238281 157.277344 213.398438 157.667969 213.640625 C 160.128906 215.265625 162.699219 216.699219 165.378906 217.929688 L 166.6875 213.355469 C 164.808594 211.855469 163.0625 210.210938 161.449219 208.433594 C 159.835938 206.652344 158.375 204.753906 157.066406 202.742188 C 155.753906 200.730469 154.613281 198.625 153.644531 196.429688 C 152.671875 194.234375 151.878906 191.976562 151.269531 189.65625 C 149.914062 189.058594 148.671875 188.28125 147.539062 187.324219 C 146.410156 186.367188 145.4375 185.273438 144.625 184.035156 C 143.8125 182.800781 143.195312 181.472656 142.765625 180.058594 C 142.339844 178.644531 142.121094 177.199219 142.113281 175.722656 L 142.113281 168.609375 C 142.125 168.117188 142.1875 167.625 142.292969 167.144531 C 142.402344 166.660156 142.554688 166.191406 142.753906 165.738281 C 142.949219 165.285156 143.191406 164.851562 143.46875 164.445312 C 143.75 164.035156 144.070312 163.65625 144.421875 163.308594 C 144.777344 162.960938 145.160156 162.648438 145.574219 162.375 C 145.984375 162.101562 146.421875 161.867188 146.878906 161.675781 C 147.339844 161.484375 147.8125 161.339844 148.296875 161.238281 C 148.785156 161.136719 149.273438 161.082031 149.773438 161.074219 C 153.933594 160.859375 158.027344 161.808594 162.191406 161.808594 C 163.996094 161.816406 165.796875 161.6875 167.585938 161.421875 C 169.371094 161.160156 171.132812 160.761719 172.859375 160.234375 C 174.589844 159.710938 176.269531 159.058594 177.898438 158.277344 C 179.527344 157.5 181.09375 156.605469 182.585938 155.59375 C 184.082031 154.578125 185.492188 153.460938 186.820312 152.238281 C 188.148438 151.015625 189.375 149.699219 190.503906 148.292969 C 191.628906 146.882812 192.648438 145.398438 193.550781 143.839844 C 194.457031 142.28125 195.238281 140.664062 195.898438 138.984375 C 196.132812 138.390625 196.503906 137.898438 197.011719 137.507812 C 197.519531 137.117188 198.089844 136.882812 198.730469 136.808594 C 199.367188 136.734375 199.976562 136.828125 200.5625 137.089844 C 201.148438 137.355469 201.621094 137.75 201.988281 138.273438 C 202.65625 139.332031 203.125 140.46875 203.390625 141.6875 C 204.53125 146.371094 206.480469 150.691406 209.242188 154.652344 C 209.933594 155.625 210.726562 156.515625 211.613281 157.316406 C 212.503906 158.117188 213.46875 158.816406 214.507812 159.40625 C 215.550781 159.996094 216.644531 160.464844 217.792969 160.8125 C 218.9375 161.164062 220.109375 161.382812 221.304688 161.476562 C 224.015625 161.476562 226.917969 160.765625 229.34375 161.976562 C 232.554688 163.585938 233.292969 167.78125 233.363281 171.453125 C 233.539062 174.789062 233.125 178.054688 232.128906 181.242188 C 231.621094 182.839844 230.832031 184.285156 229.765625 185.574219 C 228.695312 186.867188 227.421875 187.910156 225.941406 188.707031 C 225.273438 188.960938 224.667969 189.324219 224.136719 189.796875 C 223.699219 190.363281 223.40625 190.996094 223.253906 191.695312 C 221.945312 195.960938 220.042969 199.945312 217.546875 203.644531 C 215.050781 207.347656 212.070312 210.609375 208.601562 213.429688 L 210.289062 219.472656 C 213.152344 218 215.851562 216.277344 218.390625 214.300781 C 220.925781 212.324219 223.257812 210.132812 225.382812 207.722656 C 227.507812 205.3125 229.390625 202.722656 231.027344 199.960938 C 232.664062 197.199219 234.03125 194.308594 235.125 191.292969 C 237.328125 185.261719 238.789062 179.058594 239.515625 172.679688 C 240.238281 166.304688 240.203125 159.929688 239.40625 153.5625 C 239.101562 147.585938 237.460938 142 234.484375 136.804688 C 233.730469 135.535156 232.824219 134.386719 231.761719 133.363281 C 230.699219 132.335938 229.515625 131.472656 228.21875 130.765625 C 226.921875 130.058594 225.550781 129.535156 224.113281 129.195312 C 222.671875 128.859375 221.210938 128.714844 219.734375 128.769531 C 219.105469 130.199219 218.6875 131.683594 218.472656 133.226562 C 218.339844 134.011719 218.019531 134.707031 217.507812 135.316406 C 217 135.929688 216.367188 136.367188 215.617188 136.640625 C 214.851562 136.746094 214.101562 136.691406 213.359375 136.472656 C 206.683594 134.808594 199.921875 133.667969 193.066406 133.0625 C 192.59375 133.035156 192.144531 132.917969 191.71875 132.714844 C 191.289062 132.507812 190.917969 132.230469 190.601562 131.878906 C 190.289062 131.523438 190.050781 131.125 189.894531 130.679688 C 189.738281 130.234375 189.675781 129.777344 189.699219 129.304688 C 189.726562 128.832031 189.84375 128.382812 190.050781 127.960938 C 190.257812 127.535156 190.535156 127.164062 190.890625 126.847656 C 191.242188 126.535156 191.644531 126.300781 192.089844 126.144531 C 192.539062 125.988281 193 125.925781 193.472656 125.949219 C 199.800781 126.347656 206.027344 127.375 212.144531 129.03125 L 220.851562 100.589844 C 215.511719 99.113281 210.09375 98.003906 204.601562 97.257812 C 199.109375 96.511719 193.589844 96.140625 188.046875 96.140625 C 182.503906 96.140625 176.988281 96.511719 171.496094 97.257812 C 166 98.003906 160.585938 99.113281 155.242188 100.589844 L 164.019531 129.03125 C 166.1875 128.464844 168.375 127.964844 170.585938 127.539062 C 171.050781 127.449219 171.515625 127.453125 171.980469 127.550781 C 172.445312 127.648438 172.871094 127.828125 173.261719 128.09375 C 173.65625 128.359375 173.980469 128.6875 174.238281 129.082031 C 174.5 129.476562 174.671875 129.90625 174.761719 130.371094 C 174.851562 130.835938 174.847656 131.296875 174.75 131.757812 C 174.652344 132.222656 174.472656 132.648438 174.207031 133.035156 C 173.9375 133.425781 173.605469 133.75 173.210938 134.011719 C 172.816406 134.269531 172.382812 134.441406 171.917969 134.53125 C 168.796875 135.152344 165.722656 135.941406 162.6875 136.898438 C 162.234375 137.035156 161.773438 137.078125 161.300781 137.03125 C 160.828125 136.980469 160.386719 136.847656 159.96875 136.625 C 159.546875 136.402344 159.1875 136.113281 158.886719 135.75 C 158.582031 135.386719 158.359375 134.980469 158.21875 134.53125 L 154.246094 120.949219 C 147.511719 126.210938 142.585938 135.027344 139.589844 147.257812 C 134.429688 168.328125 135.640625 185.554688 143.207031 198.519531 C 143.425781 198.925781 143.558594 199.359375 143.609375 199.816406 C 143.65625 200.273438 143.621094 200.722656 143.496094 201.167969 C 143.367188 201.609375 143.164062 202.011719 142.882812 202.375 C 142.597656 202.738281 142.257812 203.039062 141.859375 203.269531 C 141.457031 203.5 141.03125 203.652344 140.574219 203.714844 C 140.117188 203.78125 139.664062 203.761719 139.214844 203.652344 C 138.765625 203.542969 138.355469 203.355469 137.976562 203.085938 C 137.601562 202.816406 137.292969 202.488281 137.046875 202.097656 C 128.527344 187.5 127.054688 168.492188 132.667969 145.574219 C 136.355469 130.523438 142.898438 119.90625 152.078125 113.839844 L 147.558594 99.191406 C 147.433594 98.742188 147.394531 98.285156 147.445312 97.816406 C 147.496094 97.351562 147.632812 96.914062 147.851562 96.5 C 148.074219 96.085938 148.367188 95.730469 148.726562 95.429688 C 149.085938 95.128906 149.492188 94.90625 149.9375 94.761719 C 156.144531 92.851562 162.460938 91.414062 168.882812 90.449219 C 175.304688 89.484375 181.765625 89 188.261719 89 C 194.757812 89 201.21875 89.484375 207.640625 90.449219 C 214.0625 91.414062 220.378906 92.851562 226.585938 94.761719 C 227.03125 94.910156 227.433594 95.132812 227.792969 95.433594 C 228.152344 95.734375 228.441406 96.09375 228.664062 96.503906 C 228.882812 96.917969 229.019531 97.355469 229.074219 97.820312 C 229.125 98.285156 229.089844 98.742188 228.964844 99.191406 L 222.042969 121.636719 C 223.597656 121.761719 225.128906 122.03125 226.632812 122.449219 C 228.136719 122.867188 229.585938 123.425781 230.980469 124.125 C 232.375 124.824219 233.6875 125.648438 234.921875 126.601562 C 236.15625 127.554688 237.285156 128.617188 238.3125 129.789062 C 239.324219 131.039062 240.222656 132.367188 241 133.773438 C 245.472656 141.214844 246.804688 150.242188 247.019531 158.773438 C 247.417969 170.070312 245.984375 181.132812 242.714844 191.957031 C 241.023438 197 238.644531 201.703125 235.578125 206.058594 C 233.195312 209.839844 230.347656 213.238281 227.039062 216.25 C 223.152344 219.425781 219.066406 222.324219 214.785156 224.945312 L 245.710938 231.417969 C 246.9375 231.523438 248.121094 231.808594 249.261719 232.277344 C 250.398438 232.746094 251.441406 233.371094 252.390625 234.15625 C 253.335938 234.945312 254.140625 235.851562 254.808594 236.886719 C 255.476562 237.917969 255.972656 239.023438 256.296875 240.207031 C 258.867188 249.429688 266.765625 277.988281 268.191406 283.035156 C 268.265625 283.300781 268.304688 283.566406 268.316406 283.839844 C 268.328125 284.113281 268.308594 284.386719 268.253906 284.65625 C 268.203125 284.925781 268.121094 285.183594 268.011719 285.433594 C 267.898438 285.683594 267.761719 285.917969 267.597656 286.136719 C 267.429688 286.355469 267.242188 286.554688 267.03125 286.730469 C 266.820312 286.90625 266.59375 287.054688 266.347656 287.175781 C 266.101562 287.300781 265.84375 287.394531 265.578125 287.460938 C 265.3125 287.523438 265.039062 287.558594 264.765625 287.5625 Z M 187.214844 213.6875 L 187.40625 213.6875 C 201.132812 213.6875 213.382812 202.382812 217.285156 186.125 C 217.441406 185.496094 217.746094 184.949219 218.203125 184.488281 C 218.65625 184.023438 219.199219 183.707031 219.828125 183.542969 C 220.703125 183.316406 221.519531 182.953125 222.273438 182.457031 C 223.03125 181.960938 223.683594 181.359375 224.238281 180.648438 C 224.796875 179.933594 225.21875 179.152344 225.515625 178.300781 C 225.8125 177.449219 225.960938 176.574219 225.964844 175.671875 L 225.964844 168.5625 C 225.964844 168.382812 225.882812 168.25 225.730469 168.160156 C 223.664062 168.671875 221.570312 168.824219 219.449219 168.617188 C 217.332031 168.410156 215.308594 167.855469 213.382812 166.953125 C 211.617188 166.050781 209.957031 164.992188 208.398438 163.769531 C 206.839844 162.546875 205.414062 161.1875 204.121094 159.691406 C 202.828125 158.195312 201.695312 156.585938 200.714844 154.871094 C 199.734375 153.152344 198.929688 151.359375 198.300781 149.484375 C 197.320312 150.976562 196.25 152.402344 195.09375 153.761719 C 193.933594 155.121094 192.695312 156.402344 191.378906 157.609375 C 190.058594 158.8125 188.671875 159.933594 187.214844 160.964844 C 185.753906 162 184.238281 162.9375 182.660156 163.785156 C 181.085938 164.628906 179.464844 165.375 177.796875 166.019531 C 176.125 166.660156 174.425781 167.199219 172.6875 167.632812 C 170.953125 168.066406 169.195312 168.390625 167.417969 168.605469 C 165.644531 168.820312 163.859375 168.925781 162.070312 168.917969 C 159.429688 168.917969 151.03125 168.253906 149.535156 168.136719 C 149.417969 168.15625 149.320312 168.207031 149.242188 168.296875 C 149.167969 168.386719 149.128906 168.492188 149.128906 168.609375 L 149.128906 175.722656 C 149.136719 176.609375 149.285156 177.472656 149.574219 178.308594 C 149.863281 179.148438 150.277344 179.921875 150.820312 180.625 C 151.359375 181.332031 151.996094 181.933594 152.734375 182.433594 C 153.46875 182.929688 154.265625 183.300781 155.125 183.542969 C 155.746094 183.71875 156.28125 184.039062 156.730469 184.507812 C 157.175781 184.972656 157.472656 185.519531 157.621094 186.148438 C 161.378906 202.242188 173.5625 213.59375 187.214844 213.6875 Z M 172.941406 217.339844 L 170.015625 227.578125 L 187.546875 261.753906 L 205.128906 227.601562 L 202.203125 217.242188 C 197.546875 219.609375 192.609375 220.804688 187.382812 220.820312 L 187.144531 220.820312 C 182.117188 220.753906 177.359375 219.59375 172.871094 217.339844 Z M 260.078125 280.453125 L 249.183594 241.109375 C 248.210938 238.953125 245.710938 238.738281 243.664062 238.242188 L 211.144531 231.488281 L 190.710938 271.230469 C 190.402344 271.820312 189.960938 272.28125 189.390625 272.625 C 188.820312 272.96875 188.203125 273.140625 187.535156 273.140625 C 186.871094 273.140625 186.253906 272.96875 185.683594 272.625 C 185.113281 272.28125 184.671875 271.820312 184.359375 271.230469 L 163.949219 231.488281 C 161.878906 231.792969 159.832031 232.21875 157.8125 232.765625 C 148.726562 234.664062 139.636719 236.75 130.503906 238.429688 C 128.933594 238.714844 126.410156 239.285156 125.910156 241.109375 L 115.015625 280.453125 Z M 146.871094 212.882812 C 147.21875 212.890625 147.5625 212.847656 147.898438 212.757812 C 148.238281 212.664062 148.554688 212.523438 148.847656 212.335938 C 149.144531 212.148438 149.40625 211.925781 149.632812 211.660156 C 149.859375 211.394531 150.042969 211.101562 150.183594 210.785156 C 150.324219 210.464844 150.414062 210.132812 150.457031 209.785156 C 150.496094 209.441406 150.484375 209.097656 150.425781 208.753906 C 150.363281 208.410156 150.25 208.082031 150.089844 207.773438 C 149.933594 207.464844 149.730469 207.183594 149.488281 206.933594 L 149.296875 206.71875 C 148.960938 206.386719 148.574219 206.132812 148.140625 205.949219 C 147.703125 205.769531 147.246094 205.679688 146.773438 205.679688 C 146.300781 205.679688 145.847656 205.769531 145.410156 205.949219 C 144.972656 206.132812 144.585938 206.386719 144.253906 206.71875 C 143.792969 207.257812 143.507812 207.878906 143.402344 208.578125 C 143.292969 209.277344 143.378906 209.953125 143.65625 210.605469 C 143.933594 211.257812 144.359375 211.789062 144.9375 212.199219 C 145.515625 212.609375 146.160156 212.835938 146.871094 212.882812 Z M 146.871094 212.882812 " fill-opacity="1" fill-rule="nonzero"/></g></svg>