<svg xmlns="http://www.w3.org/2000/svg" xmlns:xlink="http://www.w3.org/1999/xlink" width="500" zoomAndPan="magnify" viewBox="0 0 375 374.999991" height="500" preserveAspectRatio="xMidYMid meet" version="1.0"><defs><clipPath id="069a26d045"><path d="M 120 73.714844 L 161 73.714844 L 161 100 L 120 100 Z M 120 73.714844 " clip-rule="nonzero"/></clipPath><clipPath id="4bdfcce2ea"><path d="M 96.042969 130 L 164 130 L 164 194 L 96.042969 194 Z M 96.042969 130 " clip-rule="nonzero"/></clipPath><clipPath id="93e3f343d7"><path d="M 268 174 L 279 174 L 279 300.964844 L 268 300.964844 Z M 268 174 " clip-rule="nonzero"/></clipPath><clipPath id="b2ff15c366"><path d="M 214 283 L 240 283 L 240 300.964844 L 214 300.964844 Z M 214 283 " clip-rule="nonzero"/></clipPath><clipPath id="cee69f9d89"><path d="M 140 125 L 268 125 L 268 300.964844 L 140 300.964844 Z M 140 125 " clip-rule="nonzero"/></clipPath></defs><rect x="-37.5" width="450" fill="#ffffff" y="-37.499999" height="449.999989" fill-opacity="1"/><rect x="-37.5" width="450" fill="#ffffff" y="-37.499999" height="449.999989" fill-opacity="1"/><g clip-path="url(#069a26d045)"><path fill="#00a8a8" d="M 140.625 85.617188 C 142.261719 85.617188 143.910156 85.804688 145.519531 86.179688 C 152.871094 87.890625 158.457031 93.191406 160.867188 99.792969 C 160.417969 93.09375 159.0625 80.574219 155.09375 77.695312 C 149.609375 73.714844 140.636719 73.714844 140.636719 73.714844 C 140.636719 73.714844 131.664062 73.714844 126.179688 77.695312 C 122.203125 80.578125 120.847656 93.125 120.402344 99.820312 C 123.441406 91.347656 131.421875 85.617188 140.625 85.617188 Z M 140.625 85.617188 " fill-opacity="1" fill-rule="nonzero"/></g><path fill="#00a8a8" d="M 120.351562 290.433594 C 120.351562 295.59375 124.542969 299.777344 129.714844 299.777344 C 134.882812 299.777344 139.078125 295.59375 139.078125 290.433594 L 139.078125 246.960938 C 131.53125 246.917969 125.367188 246.566406 120.351562 246.023438 Z M 120.351562 290.433594 " fill-opacity="1" fill-rule="nonzero"/><path fill="#00a8a8" d="M 142.195312 290.433594 C 142.195312 295.59375 146.386719 299.777344 151.558594 299.777344 C 156.726562 299.777344 160.921875 295.59375 160.921875 290.433594 L 160.921875 246.023438 C 155.90625 246.566406 149.742188 246.917969 142.195312 246.960938 Z M 142.195312 290.433594 " fill-opacity="1" fill-rule="nonzero"/><path fill="#00a8a8" d="M 120.351562 244.140625 C 125.300781 244.683594 131.457031 245.042969 139.078125 245.089844 C 139.597656 245.089844 140.101562 245.097656 140.636719 245.097656 C 141.171875 245.097656 141.675781 245.089844 142.195312 245.089844 C 149.816406 245.042969 155.972656 244.683594 160.921875 244.140625 C 166.546875 243.523438 170.628906 242.667969 173.582031 241.78125 C 174.332031 229.734375 175.308594 220.222656 176.269531 212.90625 L 174.980469 206.445312 L 166.710938 165.042969 C 161.289062 174.902344 158.085938 186.78125 157.171875 200.539062 C 157.019531 202.84375 156.027344 204.910156 154.507812 206.457031 C 152.800781 208.195312 150.4375 209.277344 147.832031 209.277344 C 147.632812 209.277344 147.429688 209.269531 147.230469 209.257812 C 144.835938 209.101562 142.714844 208.054688 141.15625 206.464844 C 139.355469 204.632812 138.308594 202.082031 138.488281 199.328125 C 138.597656 197.585938 138.742188 195.886719 138.914062 194.222656 C 129.785156 192.371094 122.1875 190.113281 115.851562 187.367188 C 113.96875 186.550781 112.238281 185.691406 110.617188 184.804688 L 106.285156 206.484375 L 100.066406 237.613281 C 100.066406 237.609375 102.007812 242.121094 120.351562 244.140625 Z M 160.921875 218.535156 L 155.992188 220.179688 L 154.871094 216.289062 L 160.234375 214.980469 L 170.714844 212.414062 L 171.339844 215.0625 Z M 125.28125 220.179688 L 120.351562 218.535156 L 109.933594 215.0625 L 110.554688 212.414062 L 121.039062 214.976562 L 126.402344 216.289062 Z M 125.28125 220.179688 " fill-opacity="1" fill-rule="nonzero"/><path fill="#00a8a8" d="M 178.28125 186.066406 L 178.28125 155.589844 C 177.582031 154.441406 176.855469 153.316406 176.105469 152.214844 C 175.742188 152.585938 175.378906 152.957031 175.027344 153.339844 C 172.492188 156.125 170.226562 159.167969 168.21875 162.445312 C 169.980469 165.394531 171.609375 168.59375 173.09375 171.976562 C 175.066406 176.449219 176.78125 181.214844 178.28125 186.066406 Z M 178.28125 186.066406 " fill-opacity="1" fill-rule="nonzero"/><g clip-path="url(#4bdfcce2ea)"><path fill="#00a8a8" d="M 146.566406 143.226562 C 143.601562 143.070312 140.949219 138.398438 140.949219 138.398438 C 140.949219 138.398438 142.710938 137.097656 144.5625 135.03125 C 145.472656 134.011719 146.394531 132.808594 147.148438 131.472656 C 145.042969 131.105469 142.871094 130.90625 140.636719 130.914062 C 138.476562 130.921875 136.289062 131.109375 134.105469 131.4375 C 134.859375 132.785156 135.792969 134.003906 136.710938 135.03125 C 138.5625 137.097656 140.324219 138.398438 140.324219 138.398438 C 140.324219 138.398438 137.671875 143.070312 134.707031 143.226562 C 132.835938 143.328125 129.847656 139.144531 127.898438 136.046875 C 127.144531 134.847656 126.542969 133.8125 126.226562 133.25 C 121.234375 134.796875 116.417969 137.042969 112.09375 139.789062 C 107.886719 142.496094 104.148438 145.691406 101.300781 149.460938 C 98.476562 153.207031 96.460938 157.679688 96.453125 162.660156 C 96.433594 166.453125 97.71875 170.351562 100.144531 173.710938 C 100.148438 173.71875 100.152344 173.726562 100.15625 173.734375 C 100.832031 174.667969 101.605469 175.558594 102.433594 176.425781 C 104.707031 178.804688 107.542969 180.941406 111 182.882812 C 112.71875 183.851562 114.570312 184.773438 116.59375 185.652344 C 122.582031 188.246094 129.992188 190.488281 139.125 192.355469 C 139.730469 192.480469 140.347656 192.601562 140.96875 192.722656 C 142.851562 193.085938 144.796875 193.441406 146.828125 193.773438 C 147.164062 193.828125 147.496094 193.855469 147.824219 193.855469 C 150.75 193.855469 153.332031 191.742188 153.820312 188.769531 C 154.367188 185.460938 152.121094 182.335938 148.808594 181.789062 C 146.792969 181.457031 144.871094 181.109375 143.023438 180.75 C 142.402344 180.628906 141.789062 180.503906 141.183594 180.378906 C 132.851562 178.652344 126.328125 176.636719 121.4375 174.511719 C 118.039062 173.046875 115.460938 171.53125 113.554688 170.097656 C 111.921875 168.867188 110.777344 167.695312 110.058594 166.671875 C 110.054688 166.667969 110.054688 166.664062 110.050781 166.660156 C 110.027344 166.625 109.996094 166.59375 109.972656 166.558594 L 109.980469 166.550781 C 108.929688 165.015625 108.640625 163.867188 108.625 162.660156 C 108.613281 161.078125 109.292969 159.0625 111.023438 156.761719 C 112.496094 154.785156 114.726562 152.746094 117.394531 150.882812 L 113.964844 168.039062 C 115.609375 169.390625 118.191406 171.078125 122.179688 172.796875 C 127.3125 175.023438 133.832031 176.957031 141.617188 178.5625 C 144.902344 165.28125 150.144531 155.226562 155.441406 147.835938 C 157.390625 145.117188 159.347656 142.753906 161.214844 140.726562 C 161.390625 140.53125 161.566406 140.359375 161.742188 140.171875 C 162.269531 139.605469 162.796875 139.054688 163.320312 138.527344 C 163.226562 138.457031 163.140625 138.382812 163.046875 138.3125 C 160.511719 136.460938 157.746094 134.898438 154.796875 133.691406 C 154.457031 134.277344 153.964844 135.113281 153.375 136.046875 C 151.425781 139.144531 148.4375 143.324219 146.566406 143.226562 Z M 146.566406 143.226562 " fill-opacity="1" fill-rule="nonzero"/></g><path fill="#00a8a8" d="M 136.179688 126.214844 C 146.75 128.671875 157.316406 122.109375 159.78125 111.558594 C 160.34375 109.136719 160.414062 106.722656 160.085938 104.398438 C 158.992188 96.597656 153.242188 89.894531 145.09375 88 C 134.523438 85.542969 123.957031 92.105469 121.492188 102.660156 C 121.355469 103.238281 121.261719 103.820312 121.179688 104.398438 C 119.777344 114.347656 126.1875 123.890625 136.179688 126.214844 Z M 136.179688 126.214844 " fill-opacity="1" fill-rule="nonzero"/><g clip-path="url(#93e3f343d7)"><path fill="#00a8a8" d="M 268.121094 185.945312 C 268.824219 187.210938 269.226562 188.671875 269.230469 190.222656 L 269.230469 296.277344 C 269.230469 298.859375 271.324219 300.953125 273.910156 300.953125 C 276.496094 300.953125 278.59375 298.859375 278.59375 296.277344 L 278.589844 190.222656 C 278.589844 183.234375 274.644531 177.175781 268.863281 174.117188 C 269.085938 176.417969 269.25 178.765625 269.304688 181.195312 C 269.347656 182.917969 268.90625 184.539062 268.121094 185.945312 Z M 268.121094 185.945312 " fill-opacity="1" fill-rule="nonzero"/></g><path fill="#00a8a8" d="M 250.164062 175.09375 C 245.289062 178.367188 242.082031 183.917969 242.078125 190.222656 C 242.078125 192.804688 244.175781 194.898438 246.761719 194.898438 C 249.347656 194.898438 251.441406 192.804688 251.441406 190.222656 C 251.441406 188.945312 251.722656 187.730469 252.207031 186.636719 C 251.226562 185.195312 250.628906 183.480469 250.585938 181.632812 C 250.53125 179.363281 250.390625 177.183594 250.164062 175.09375 Z M 250.164062 175.09375 " fill-opacity="1" fill-rule="nonzero"/><path fill="#00a8a8" d="M 214.535156 270.863281 L 238.980469 277.539062 C 238.910156 271.496094 238.78125 265.828125 238.609375 260.523438 L 214.53125 270.730469 C 214.53125 270.773438 214.535156 270.816406 214.535156 270.863281 Z M 214.535156 270.863281 " fill-opacity="1" fill-rule="nonzero"/><path fill="#00a8a8" d="M 214.183594 258.429688 C 214.292969 261.394531 214.386719 264.492188 214.464844 267.714844 L 237.945312 257.757812 Z M 214.183594 258.429688 " fill-opacity="1" fill-rule="nonzero"/><path fill="#00a8a8" d="M 239.011719 280.449219 L 214.589844 273.78125 C 214.640625 277.003906 214.679688 280.34375 214.695312 283.808594 L 239.011719 280.636719 C 239.011719 280.574219 239.011719 280.511719 239.011719 280.449219 Z M 239.011719 280.449219 " fill-opacity="1" fill-rule="nonzero"/><g clip-path="url(#b2ff15c366)"><path fill="#00a8a8" d="M 214.707031 288.40625 C 214.707031 295.113281 220.15625 300.550781 226.878906 300.550781 C 233.597656 300.550781 239.046875 295.113281 239.046875 288.40625 C 239.046875 286.730469 239.042969 285.085938 239.035156 283.464844 L 214.703125 286.636719 C 214.703125 287.226562 214.707031 287.808594 214.707031 288.40625 Z M 214.707031 288.40625 " fill-opacity="1" fill-rule="nonzero"/></g><g clip-path="url(#cee69f9d89)"><path fill="#00a8a8" d="M 143.460938 178.929688 C 145.28125 179.285156 147.164062 179.621094 149.113281 179.941406 C 151.207031 180.285156 153.042969 181.429688 154.285156 183.152344 C 155.523438 184.875 156.015625 186.976562 155.667969 189.070312 C 155.03125 192.925781 151.734375 195.722656 147.824219 195.722656 C 147.398438 195.722656 146.960938 195.6875 146.53125 195.617188 C 144.539062 195.289062 142.621094 194.945312 140.757812 194.585938 C 140.59375 196.175781 140.457031 197.792969 140.355469 199.449219 C 140.160156 202.425781 141.746094 205.101562 144.195312 206.460938 C 145.136719 206.984375 146.199219 207.316406 147.34375 207.390625 C 147.507812 207.402344 147.671875 207.40625 147.832031 207.40625 C 149.144531 207.40625 150.382812 207.0625 151.464844 206.457031 C 153.609375 205.261719 155.128906 203.046875 155.300781 200.414062 C 156.4375 183.335938 160.882812 171.078125 166.144531 162.226562 C 166.464844 161.6875 166.789062 161.167969 167.109375 160.65625 C 169.234375 157.304688 171.464844 154.472656 173.644531 152.078125 C 174.105469 151.574219 174.558594 151.105469 175.015625 150.644531 C 176.804688 148.824219 178.546875 147.292969 180.152344 146.027344 L 180.152344 200.195312 C 180.152344 200.238281 180.160156 200.277344 180.160156 200.320312 C 179.554688 203.453125 178.859375 207.585938 178.164062 212.828125 C 177.917969 214.660156 177.675781 216.625 177.433594 218.738281 C 176.726562 224.933594 176.050781 232.363281 175.492188 241.148438 C 175.453125 241.816406 175.410156 242.496094 175.371094 243.179688 C 174.632812 255.539062 174.140625 270.484375 174.136719 288.402344 C 174.136719 295.109375 179.585938 300.550781 186.308594 300.550781 C 193.03125 300.550781 198.476562 295.109375 198.476562 288.402344 C 198.476562 254.496094 200.289062 231.863281 202.050781 217.910156 C 202.574219 213.773438 203.085938 210.417969 203.550781 207.734375 L 209.636719 207.734375 C 211.089844 216.15625 213.070312 231.421875 214.074219 255.628906 L 238.402344 254.9375 C 237.242188 226.523438 234.757812 209.335938 233.027344 200.324219 C 233.027344 200.28125 233.03125 200.242188 233.03125 200.195312 L 233.03125 143.449219 C 234.699219 144.21875 236.460938 145.210938 238.191406 146.519531 C 241.53125 149.03125 244.855469 152.597656 247.535156 158.101562 C 249.503906 162.1875 251.121094 167.386719 251.929688 174.058594 C 252.207031 176.386719 252.394531 178.886719 252.457031 181.585938 C 252.484375 182.757812 252.785156 183.851562 253.289062 184.828125 C 254.535156 187.242188 257.054688 188.890625 259.941406 188.890625 C 260 188.890625 260.058594 188.886719 260.121094 188.886719 C 263.191406 188.816406 265.789062 186.90625 266.878906 184.234375 C 267.257812 183.3125 267.457031 182.300781 267.433594 181.238281 C 267.367188 178.445312 267.1875 175.78125 266.90625 173.238281 C 265.933594 164.332031 263.714844 156.929688 260.652344 150.859375 C 254.769531 139.113281 245.804688 132.675781 238.515625 129.511719 C 234.289062 127.667969 230.609375 126.8125 228.125 126.410156 C 227.300781 126.101562 226.410156 125.925781 225.476562 125.925781 L 224.546875 125.925781 C 221.28125 129.664062 216.9375 132.285156 212.003906 133.433594 C 210.214844 133.847656 208.390625 134.058594 206.570312 134.058594 C 199.464844 134.058594 193.015625 130.96875 188.613281 125.925781 L 187.707031 125.925781 C 186.757812 125.925781 185.851562 126.105469 185.015625 126.425781 C 184.398438 126.492188 183.777344 126.632812 183.164062 126.863281 C 182.476562 127.128906 174.097656 130.417969 164.808594 139.679688 C 164.074219 140.417969 163.332031 141.175781 162.589844 141.988281 C 162.453125 142.132812 162.324219 142.28125 162.191406 142.429688 C 160.429688 144.371094 158.664062 146.535156 156.945312 148.9375 C 151.546875 156.488281 146.585938 166.367188 143.460938 178.929688 Z M 143.460938 178.929688 " fill-opacity="1" fill-rule="nonzero"/></g><path fill="#00a8a8" d="M 191.21875 125.925781 C 196.410156 130.984375 203.992188 133.378906 211.578125 131.613281 C 215.652344 130.667969 219.195312 128.648438 221.976562 125.925781 C 222.578125 125.335938 223.140625 124.707031 223.671875 124.054688 C 227.792969 118.976562 229.613281 112.121094 228.011719 105.257812 C 225.257812 93.453125 213.433594 86.109375 201.605469 88.859375 C 189.777344 91.609375 182.417969 103.410156 185.175781 115.214844 C 185.957031 118.5625 187.46875 121.554688 189.503906 124.054688 C 190.039062 124.714844 190.613281 125.335938 191.21875 125.925781 Z M 191.21875 125.925781 " fill-opacity="1" fill-rule="nonzero"/></svg>